<svg xmlns="http://www.w3.org/2000/svg" width="31" height="21" fill="none" viewBox="0 0 31 21"><path fill="#101010" d="M0 3q0-1.558 1.725-1.68l4.432.03q.446 0 .595.459.684 2.289 1.531 3.954.849 1.664 2.216 3.831.12.275.387.275.208 0 .327-.213l.09-.336.03-5.282q0-.55-.254-.733-.252-.183-.937-.275-.535-.092-.535-.672 0-.121.03-.183Q10.26.19 13.206.19L14.87.16q1.131 0 1.874.58t.744 1.832v6.93q.209.154.387.154.446 0 .773-.55 3.27-4.702 3.54-6.29 0-.03.059-.152.209-.458.684-.794t.833-.458a.6.6 0 0 1 .267-.061h4.61l.298.03q.595 0 .922.58.12.184.164.397t.06.428q.014.214.014.244v.214q-.208 1.252-1.056 2.671-.848 1.42-2.156 3.069-1.31 1.649-1.636 2.168-.268.366-.268.671 0 .244.238.55l4.343 5.618q.357.489.357 1.069 0 .702-.536 1.16a2.2 2.2 0 0 1-1.279.519l-.505.03H23.08q-.03 0-.12.016a1 1 0 0 1-.118.015q-.654 0-1.22-.58-.208-.245-2.796-3.603a1.6 1.6 0 0 0-.416-.397q-.12.489-.312 1.405-.194.915-.283 1.312l-.09.52q-.296 1.069-1.248 1.282l-.417.03h-2.915q-2.468 0-4.922-2.32t-4.417-6T.15 3.885Q0 3.488.001 2.999m17.876 7.907q-.626 0-1.13-.35a1.11 1.11 0 0 1-.506-.963V2.572q0-.61-.298-.87-.297-.26-1.04-.26l-1.696.061q-1.28 0-1.933.458 1.308.642 1.308 2.077V9.41q-.06.764-.594 1.267-.536.504-1.19.504-.893 0-1.368-.885-2.32-3.603-3.45-6.84l-.268-.793-3.956-.031q-.387 0-.431.046-.045.045-.045.26 0 .274.06.58l.624 1.71q2.499 6.625 5.428 10.441 2.93 3.817 5.755 3.817h2.975q.178 0 .267-.107.09-.106.15-.412l.059-.305.565-2.687q.237-.55.416-.733.327-.336.774-.336.713 0 1.457.886l2.528 3.297q.238.397.506.397h4.907q.893 0 .893-.458a.6.6 0 0 0-.09-.305l-4.312-5.527q-.506-.64-.506-1.374 0-.732.476-1.404.387-.61 1.502-2.03a45 45 0 0 0 1.948-2.657q.833-1.236 1.1-2.244l.09-.397a.5.5 0 0 1-.03-.198.8.8 0 0 0-.03-.23h-4.67a1.63 1.63 0 0 0-.713.55l-.179.58q-.743 2.108-3.896 6.504-.624.61-1.457.61"/></svg>